<?xml version="1.0" encoding="UTF-8" standalone="no"?>
<!-- Created with Inkscape (http://www.inkscape.org/) -->

<svg
   width="50.560528mm"
   height="44.550339mm"
   viewBox="0 0 50.560528 44.550339"
   version="1.1"
   id="svg1"
   xml:space="preserve"
   xmlns="http://www.w3.org/2000/svg"
   xmlns:svg="http://www.w3.org/2000/svg"><defs
     id="defs1" /><g
     id="layer1"
     transform="translate(-91.220863,-72.404073)"><path
       id="path5"
       style="fill:#000000;fill-opacity:1;stroke-width:7.38701;stroke-linecap:round;paint-order:fill markers stroke"
       d="m 117.66577,72.408808 c -5.18598,-0.21345 -10.40009,6.86025 -11.59464,8.58862 -9.519635,7.60014 -14.85026,23.263702 -14.85026,23.263702 l 45.29646,12.69328 c 0,0 0.24903,-1.4935 1.49345,-17.173112 0.37748,-4.75619 -0.20704,-8.34405 -1.2299,-11.05152 6.14037,-10.77558 6.28833,-13.49934 2.27945,-13.0576 -4.20859,0.46374 -8.90094,3.85237 -10.09499,4.76198 -1.03594,-0.59149 -5.57048,-2.86573 -11.01225,-3.12591 0.70407,-2.25307 1.18575,-4.83881 -0.28732,-4.89944 z m -5.85443,9.83351 c 1.9782,-0.0381 16.66004,-0.6456 16.19075,8.32972 -0.4693,8.97532 -5.00745,7.17683 -5.00745,7.17683 -9.62346,-2.82063 -21.23798,-2.9037 -21.23798,-2.9037 -1.52558,-1.80799 2.44311,-12.45619 10.05468,-12.60285 z" /><ellipse
       style="fill:#000000;fill-opacity:1;stroke-width:6.35739;stroke-linecap:round;paint-order:fill markers stroke"
       id="ellipse5"
       cx="138.21321"
       cy="19.617264"
       rx="1.5193726"
       ry="3.536268"
       transform="matrix(0.85840444,0.5129735,-0.44383923,0.89610643,0,0)" /><ellipse
       style="fill:#000000;fill-opacity:1;stroke-width:6.55998;stroke-linecap:round;paint-order:fill markers stroke"
       id="ellipse6"
       cx="142.97328"
       cy="40.051708"
       rx="1.6044153"
       ry="3.5656607"
       transform="matrix(0.93145413,0.36385877,-0.33317066,0.94286654,0,0)" /></g></svg>
