<?xml version="1.0" encoding="UTF-8" standalone="no"?>
<!-- Created with Inkscape (http://www.inkscape.org/) -->

<svg
   width="15.972394mm"
   height="17.702061mm"
   viewBox="0 0 15.972394 17.702061"
   version="1.1"
   id="svg1"
   xml:space="preserve"
   xmlns="http://www.w3.org/2000/svg"
   xmlns:svg="http://www.w3.org/2000/svg"><defs
     id="defs1" /><g
     id="layer1"
     transform="translate(-166.67933,-15.990405)"><path
       style="font-weight:bold;font-size:19.7556px;font-family:'SF Pro';-inkscape-font-specification:'SF Pro Bold';font-variant-ligatures:no-common-ligatures;stroke-width:7.387;stroke-linecap:round;paint-order:fill markers stroke"
       d="m 181.79852,20.85267 q -0.0769,0.328745 -0.33128,0.526815 -0.25218,0.188676 -0.5985,0.186915 l -4.60113,-0.06585 q -0.20603,-0.0086 -0.29375,0.06998 -0.0855,0.06916 -0.13824,0.294584 l -2.01925,8.631905 q -0.22631,0.967449 -0.72864,1.632571 -0.50452,0.674514 -1.16575,1.04489 -0.66343,0.379767 -1.39903,0.47517 -0.72839,0.106995 -1.41406,-0.0534 -1.31498,-0.307612 -1.97076,-1.273368 -0.65798,-0.956362 -0.37234,-2.177416 0.28125,-1.202267 1.22443,-1.803887 0.94537,-0.611012 2.5323,-0.576612 l 1.59633,0.0366 q 0.47282,0.01154 0.54451,-0.506653 l 2.40721,-10.334264 q 0.23291,-0.995628 1.44534,-0.969581 l 5.11371,0.07679 q 0.51479,0.0015 0.81079,0.387801 0.29601,0.38626 0.17736,0.893466 z"
       id="text7"
       aria-label="􀑪" /></g></svg>
